<?xml version="1.0" encoding="UTF-8"?>
<svg xmlns="http://www.w3.org/2000/svg" xmlns:xlink="http://www.w3.org/1999/xlink" id="Layer_1" data-name="Layer 1" viewBox="0 0 3564.28 785">
  <defs>
    <style>
      .cls-1 {
        fill: #293860;
      }

      .cls-2 {
        fill: #cb2a27;
      }

      .cls-3 {
        clip-path: url(#clippath-1);
      }

      .cls-4 {
        clip-path: url(#clippath);
      }

      .cls-5 {
        clip-rule: evenodd;
      }

      .cls-5, .cls-6 {
        fill: none;
      }

      .cls-7 {
        fill: #63bde4;
      }
    </style>
    <clipPath id="clippath">
      <path class="cls-5" d="M1266.03,223.71c1.3-2.92,40.76-24.72,40.76-24.72,0,0-7.4-2.92-8.01-3.9-1.24-1.89,6.34-23.2,6.34-23.2,0,0-19.2,4.83-21.66,4.17-1.85-.48-3.88-9.98-3.88-9.98l-14.2,12.68c-5.85,4.9-6.93,4.93-8.07,4.3-.75-.46-.96-1.29-.61-3.58l7.4-38.35s-14.26,7.63-16.47,7.33c-1.99-.26-14.1-22.8-14.1-22.8,0,0-12.16,22.62-14.53,23.07-2.12,.41-16.02-7.46-16.02-7.46l7.38,38.73c.24,1.94,.03,2.71-.67,3.12-1.09,.61-2.18,.6-7.68-3.95l-14.33-12.77s-1.83,9.13-3.85,9.96c-2.31,.98-21.69-4.17-21.69-4.17,0,0,6.69,20.81,6.35,23.21-.19,1.34-8,3.86-8,3.86,0,0,39.46,21.77,40.25,24.44,.45,1.53-2.83,10.31-2.83,10.31,0,0,32.16-4.85,33.95-3.27,1.24,1.1-1.03,41.21-1.03,41.21h5.67s-2.4-40.17-1.03-41.32c2.1-1.72,33.42,3.38,33.42,3.38,0,0-3.46-8.91-2.85-10.31h0Z"></path>
    </clipPath>
    <clipPath id="clippath-1">
      <rect class="cls-6" x="-936.44" y="-1548.62" width="3023.46" height="2600.84"></rect>
    </clipPath>
  </defs>
  <path class="cls-1" d="M173.36,362.1c25.98,0,47.74,17.79,53.94,41.82,1.15-4.46,1.83-9.12,1.83-13.94,0-30.8-24.97-55.77-55.77-55.77s-55.77,24.97-55.77,55.77c0,4.82,.68,9.48,1.83,13.94,6.2-24.04,27.96-41.82,53.94-41.82Z"></path>
  <path class="cls-1" d="M426.47,362.1c25.98,0,47.74,17.79,53.94,41.82,1.15-4.46,1.83-9.12,1.83-13.94,0-30.8-24.97-55.77-55.77-55.77s-55.77,24.97-55.77,55.77c0,4.82,.68,9.48,1.83,13.94,6.2-24.04,27.96-41.82,53.94-41.82Z"></path>
  <path class="cls-1" d="M541.51,223.84c11.98,.36,21.75,.81,24.49,1.35v-28.42c-5.74-.93-41.47-1.55-64.82-1.84-11.05-5.15-22.86-8.82-35.29-10.72-7.77-1.19-19.76-2.77-34.14-2.77-25.3,0-49.03,4.96-70.54,14.74-23.65,10.76-44.71,27.43-62.66,49.57-17.43-21.28-36.82-38.72-60.25-49.35-21.53-9.76-44.81-14.72-69.18-14.72-16.74,0-29.19,2.41-35.13,3.84-9.56,2.31-18.7,5.48-27.46,9.29-19.97,.15-58.25,.55-63.08,1.14v28.24c1.96-.29,9.55-.54,19.14-.74-4.16,3.86-8.19,7.87-11.91,12.19-13.32,15.46-23.6,33.97-30.31,54.17-.17,.47-.33,.95-.49,1.42-1.09,3.38-2.04,6.83-2.92,10.3-2.27,8.65-3.8,17.57-4.53,26.74-.23,2.61-.55,5.19-.66,7.83-.05,1.25,.04,2.53,.02,3.79,0,.27-.05,.54-.05,.81,0,.35,.05,.69,.05,1.04-.12,34.01,11.52,70.29,34.95,107.98,19.97,32.12,48.55,65.55,84.95,99.36,73.2,68,152.81,114.49,161.64,119.57l6.53,3.76,6.53-3.76c8.81-5.07,88.19-51.45,161.35-119.58,36.3-33.8,64.81-67.23,84.73-99.36,24.65-39.76,36.38-77.99,34.87-113.6-1.92-44.99-18.97-84.57-45.84-112.28Zm-111.93,256.72c-35.14,0-67.22-13.14-91.78-34.66l-30.89-40.98c27.62-128.32,106.03-182.13,174.65-182.13,2.48,0,10.17,.07,19.92,.21,34.95,21.81,58.35,63.98,60.49,114.11,1.31,30.66-9.47,64.38-31.46,99.98-25.43,26.71-61.23,43.46-100.93,43.46ZM37.14,337.12c2.5-58.57,33.61-95.25,69.27-114.25,5.9-.05,10.28-.08,11.74-.08,68.46,0,146.65,53.56,174.44,181.24l-33.02,41.09c-24.63,21.82-56.96,35.13-92.38,35.13s-70.19-14.41-95.14-37.76c-24.37-37.6-36.28-73.17-34.91-105.38Zm412.9,194.52c-61.89,57.62-128.27,99.21-150.18,112.32-21.99-13.14-88.59-54.83-150.49-112.33-18.36-17.06-34.51-33.92-48.47-50.5,20.14,9.55,42.56,15.05,66.29,15.05,38.37,0,73.5-14.03,100.64-37.16l31.81,43.95,29.54-43.44c27.11,23.01,62.14,36.97,100.4,36.97,25.26,0,49.05-6.18,70.16-16.92-14.22,17.08-30.8,34.47-49.7,52.07Z"></path>
  <g class="cls-4">
    <g class="cls-3">
      <rect class="cls-2" x="1079.19" y="44.39" width="308.87" height="308.84"></rect>
    </g>
  </g>
  <g>
    <polygon class="cls-7" points="2575.58 564.58 2443.62 185.54 2403.41 185.54 2270.89 563.93 2142.44 185.54 2090.79 185.54 2249.57 650.64 2291.12 650.64 2423.22 270.62 2555.91 650.64 2596.82 650.64 2755.61 185.54 2705.23 185.54 2575.58 564.58"></polygon>
    <rect class="cls-7" x="2804.5" y="298.68" width="48.2" height="351.96"></rect>
    <path class="cls-7" d="M2828.29,173.04c-18.98,0-34.42,15.44-34.42,34.42s15.76,33.79,34.42,33.79,34.41-15.44,34.41-34.42-15.75-33.79-34.41-33.79Z"></path>
    <path class="cls-7" d="M3066.54,453.02c-57.01-11.16-91.95-19.89-91.95-57.43,0-33.74,30.29-53.09,83.09-53.09,34.96,0,67.85,10.09,90.24,27.68l11.82,9.29,25.73-39.32-9.79-7.83c-27.45-21.96-73.52-36.15-117.38-36.15-97.83,0-132.55,53.89-132.55,100.04,0,78.24,71.9,91.86,129.67,102.8,55.62,10.54,89.71,18.78,89.71,54.09s-29.85,53.72-88.71,53.72c-49.77,0-89.22-19.49-109.55-37.73l-12.3-11.03-24.36,39.6,7.7,7.7c28.65,28.65,82.77,47.17,137.88,47.17,66.49,0,137.55-26.11,137.55-99.42s-70.31-89.03-126.81-100.08Z"></path>
    <path class="cls-7" d="M3552.77,471.84c0-101.79-69.67-175.67-165.67-175.67s-166.3,74.93-166.3,178.18,74.93,178.17,178.18,178.17c53.18,0,99.77-20.62,131.19-58.05l7.93-9.45-32.74-34.31-9.81,12.75c-21.19,27.56-55.5,42.74-96.57,42.74-71.02,0-122.65-46.58-129.77-114.92h283.57v-19.42Zm-282.27-25.04c9.47-62.11,55.71-104.3,116.59-104.3s107.09,42.18,117.09,104.3h-233.68Z"></path>
  </g>
  <g>
    <path class="cls-1" d="M918.2,249.6c52.17,0,92.25,15.51,126.12,48.81l9.86,9.69,48.44-49.49-8.91-9.63c-42.03-45.42-103.38-69.42-177.45-69.42-145.96,0-251.9,102.15-251.9,242.88s105.67,242.89,251.26,242.89c68.74,0,130.74-21.59,174.58-60.78l4.6-4.11v-191.79h-73.27v158.44c-28.78,18.97-62.88,28.2-103.98,28.2-103.51,0-178.63-72.69-178.63-172.84s75.39-172.84,179.27-172.84Z"></path>
    <rect class="cls-1" x="1204.25" y="295.38" width="73.27" height="366.09"></rect>
    <polygon class="cls-1" points="1633.79 295.38 1514.75 563.37 1396.91 295.38 1319.1 295.38 1481.26 661.47 1546.17 661.47 1709.03 295.38 1633.79 295.38"></polygon>
    <path class="cls-1" d="M1885.97,292.81c-103.82,0-179.18,78.06-179.18,185.61s78.71,186.26,191.4,186.26c58.45,0,108.6-21.4,141.21-60.27l7.57-9.02-43.87-50.45-10.4,11.97c-22.57,25.94-54.81,39.66-93.21,39.66-61.49,0-107.02-35.65-117.53-90.19h281.26v-13.79c0-2.44,.17-4.89,.32-7.16,.17-2.55,.31-4.93,.31-6.99,0-107.55-74.82-185.61-177.89-185.61Zm0,66.83c53.49,0,93.89,33.58,104.44,85.04h-208.24c10.51-51.46,50.66-85.04,103.8-85.04Z"></path>
  </g>
</svg>
